<?xml version="1.0" standalone="no"?>
<!DOCTYPE svg PUBLIC "-//W3C//DTD SVG 20010904//EN"
 "http://www.w3.org/TR/2001/REC-SVG-20010904/DTD/svg10.dtd">
<svg version="1.0" xmlns="http://www.w3.org/2000/svg"
 width="512.000000pt" height="512.000000pt" viewBox="0 0 512.000000 512.000000"
 preserveAspectRatio="xMidYMid meet">

<g transform="translate(0.000000,512.000000) scale(0.100000,-0.100000)"
fill="#000000" stroke="none">
<path fill="#2298B4" d="M2380 5114 c-165 -20 -218 -28 -305 -46 -188 -38 -435 -122 -591
-201 l-64 -32 300 -520 c165 -286 303 -520 308 -520 4 0 41 12 82 27 41 15
101 35 133 44 l58 16 63 126 c35 70 76 139 91 154 50 50 155 51 207 1 17 -15
59 -85 94 -155 63 -126 64 -127 106 -138 24 -6 81 -24 128 -41 47 -17 91 -31
97 -32 15 -2 616 1034 605 1044 -14 14 -240 109 -339 143 -128 44 -316 90
-453 111 -100 15 -446 28 -520 19z"/>
<path fill="#2298B4" d="M1065 4623 c-587 -429 -957 -1049 -1050 -1756 -8 -65 -15 -127 -15
-138 0 -19 12 -19 610 -19 480 0 611 3 614 13 2 6 10 50 19 97 45 235 163 466
330 645 41 44 100 100 131 125 37 30 54 50 51 60 -7 17 -585 1021 -594 1032
-3 4 -46 -23 -96 -59z"/>
<path fill="#2298B4" d="M3677 4165 c-163 -283 -297 -518 -297 -523 0 -4 34 -36 76 -70 141
-118 285 -316 360 -494 38 -88 80 -237 90 -315 l7 -53 603 0 c572 0 604 1 604
18 0 10 -7 74 -15 142 -85 688 -446 1312 -1001 1729 -60 44 -113 81 -119 81
-6 0 -144 -232 -308 -515z"/>
<path fill="#2298B4" d="M2537 3681 c-31 -53 -71 -78 -144 -90 -270 -47 -508 -191 -674 -409
-261 -344 -277 -823 -39 -1190 145 -225 362 -379 640 -454 115 -32 362 -31
484 1 460 120 777 503 803 967 16 287 -87 561 -291 772 -163 170 -359 274
-589 313 -73 12 -113 37 -144 90 -10 16 -20 29 -23 29 -3 0 -13 -13 -23 -29z
m115 -382 c171 -36 310 -175 347 -347 22 -103 9 -198 -40 -299 -33 -66 -132
-164 -196 -194 -38 -17 -53 -30 -53 -44 -1 -71 -100 -152 -170 -140 -52 10
-89 32 -111 68 -17 27 -20 43 -15 99 9 125 71 215 188 274 54 27 72 42 88 74
25 50 25 90 0 140 -23 45 -80 80 -130 80 -17 0 -49 -9 -70 -20 -45 -23 -80
-80 -80 -130 0 -17 -9 -49 -20 -70 -23 -45 -80 -80 -130 -80 -50 0 -107 35
-130 80 -50 98 2 273 115 385 110 111 257 155 407 124z m-22 -1209 c45 -23 80
-80 80 -130 0 -76 -74 -150 -151 -150 -46 0 -108 39 -130 82 -37 72 -14 151
57 194 48 29 92 30 144 4z"/>
<path fill="#2298B4" d="M0 2388 c1 -113 59 -412 112 -577 171 -535 512 -1000 974 -1329 l72
-50 298 516 c163 284 299 520 300 523 2 4 -30 35 -72 70 -225 189 -400 497
-445 787 l-13 82 -613 0 -613 0 0 -22z"/>
<path fill="#2298B4" d="M3882 2328 c-45 -287 -222 -600 -446 -787 -42 -35 -74 -66 -72 -70 1
-3 137 -239 301 -523 l298 -518 51 37 c478 343 820 802 989 1328 55 172 117
486 117 596 0 19 -12 19 -613 19 l-613 0 -12 -82z"/>
<path fill="#2298B4" d="M1717 802 l-297 -517 64 -32 c213 -108 504 -195 781 -235 135 -19
483 -16 625 5 238 37 485 110 700 208 66 30 104 52 102 61 -3 10 -575 1009
-588 1027 -2 2 -41 -10 -87 -27 -158 -57 -273 -77 -457 -76 -184 0 -265 13
-437 70 -56 19 -103 34 -105 34 -2 -1 -137 -233 -301 -518z"/>
</g>
</svg>
