<?xml version="1.0" encoding="utf-8"?>
<!-- Svg Vector Icons : http://www.onlinewebfonts.com/icon -->
<!DOCTYPE svg PUBLIC "-//W3C//DTD SVG 1.1//EN" "http://www.w3.org/Graphics/SVG/1.1/DTD/svg11.dtd">
<svg version="1.1" xmlns="http://www.w3.org/2000/svg" xmlns:xlink="http://www.w3.org/1999/xlink" x="0px" y="0px" viewBox="0 0 1000 1000" enable-background="new 0 0 1000 1000" xml:space="preserve">
  <g>
    <path fill="#2298B4" d="M159.2,10.8c-17.1,1.8-35.5,8-55.1,15.3c-34.3,14.7-58.4,38.3-78,62.7C6.5,113.3,5.3,143,19.9,182.1l79.6-33.7c-4.9-14.7-4.9-30,0-39.8c4.9-9.8,14.4-19.6,29.1-24.5c14.7-4.9,28.5-4.9,38.3,0c14.7,4.9,25.7,19,30.6,33.7s9.5,29.7,4.6,44.4c0,14.7-5.5,29.7-15.3,44.4c-14.7,24.5-24.2,43.5-29.1,58.1c0,14.7-0.6,35.2,9.2,59.7l79.6-24.5c-4.9-14.7-10.7-30-10.7-39.8c0-9.8,5.5-23.9,15.3-33.7c14.7-19.6,24.2-44.4,29.1-68.9c4.9-24.5,5.2-49-4.6-73.4c-14.7-34.3-39.5-59.1-68.9-68.9C191.9,10.4,176.3,8.9,159.2,10.8z M500.4,10.8c-58.8,0-117.5,9.2-171.4,33.7v6.1c14.7,24.5,19.9,57.8,19.9,87.2c49-19.6,97.6-29.1,151.5-29.1c215.4,0,391.7,176.3,391.7,391.7c0,215.4-176.3,391.7-391.7,391.7c-215.4,0-391.7-176.3-391.7-391.7c0-24.5-0.3-44.4,4.6-68.9l-33.7-82.6C69.8,324.4,64,299.6,68.9,280v-9.2c-39.2,68.5-58.1,146.3-58.1,229.5C10.8,769.7,231.1,990,500.4,990C769.7,990,990,769.7,990,500.4S769.7,10.8,500.4,10.8z M451.4,304.5c-54.1,0-97.9,43.8-97.9,97.9c0,54.1,43.8,97.9,97.9,97.9c54.1,0,97.9-43.8,97.9-97.9C549.3,348.4,505.5,304.5,451.4,304.5z M745.2,304.5c-54.1,0-97.9,43.8-97.9,97.9c0,54.1,43.8,97.9,97.9,97.9s97.9-43.8,97.9-97.9C843.1,348.4,799.3,304.5,745.2,304.5z M264.7,338.2l-78,30.6l24.5,67.3l78-29.1L264.7,338.2z M676.3,549.3c-269.3,0-313.7,244.8-313.7,244.8c4.9-4.9,122.7-102.5,313.7-102.5c39.2,0,68.9-29.7,68.9-68.9C745.2,583.6,715.5,549.3,676.3,549.3z"/>
  </g>
</svg>